<mxfile modified="2019-11-13T06:54:25.161Z" host="www.draw.io" agent="Mozilla/5.0 (Macintosh; Intel Mac OS X 10_11_6) AppleWebKit/537.36 (KHTML, like Gecko) Chrome/77.0.3865.120 Safari/537.36" etag="j6Unr5Kt_i9zGj4NThdQ" version="12.2.4" type="github" pages="3">
  <diagram id="AvIxJLDpv7vQeuunHaZT" name="第 1 页">
    <mxGraphModel dx="1426" dy="773" grid="1" gridSize="10" guides="1" tooltips="1" connect="1" arrows="1" fold="1" page="1" pageScale="1" pageWidth="827" pageHeight="1169" math="0" shadow="0">
      <root>
        <mxCell id="0"/>
        <mxCell id="1" parent="0"/>
        <mxCell id="tU0FHJasCiWXNEm8c2Oq-20" style="edgeStyle=orthogonalEdgeStyle;rounded=0;orthogonalLoop=1;jettySize=auto;html=1;exitX=0.5;exitY=1;exitDx=0;exitDy=0;" edge="1" parent="1" source="tU0FHJasCiWXNEm8c2Oq-1" target="tU0FHJasCiWXNEm8c2Oq-4">
          <mxGeometry relative="1" as="geometry"/>
        </mxCell>
        <mxCell id="tU0FHJasCiWXNEm8c2Oq-1" value="API Server" style="rounded=0;whiteSpace=wrap;html=1;" vertex="1" parent="1">
          <mxGeometry x="120" y="390" width="120" height="60" as="geometry"/>
        </mxCell>
        <mxCell id="tU0FHJasCiWXNEm8c2Oq-21" style="edgeStyle=orthogonalEdgeStyle;rounded=0;orthogonalLoop=1;jettySize=auto;html=1;exitX=0.5;exitY=1;exitDx=0;exitDy=0;entryX=0.5;entryY=0;entryDx=0;entryDy=0;" edge="1" parent="1" source="tU0FHJasCiWXNEm8c2Oq-2" target="tU0FHJasCiWXNEm8c2Oq-4">
          <mxGeometry relative="1" as="geometry"/>
        </mxCell>
        <mxCell id="tU0FHJasCiWXNEm8c2Oq-33" style="edgeStyle=orthogonalEdgeStyle;rounded=0;orthogonalLoop=1;jettySize=auto;html=1;exitX=0.5;exitY=0;exitDx=0;exitDy=0;entryX=1;entryY=0.5;entryDx=0;entryDy=0;strokeColor=#000000;" edge="1" parent="1" source="tU0FHJasCiWXNEm8c2Oq-2" target="tU0FHJasCiWXNEm8c2Oq-29">
          <mxGeometry relative="1" as="geometry"/>
        </mxCell>
        <mxCell id="tU0FHJasCiWXNEm8c2Oq-2" value="Task Reporter" style="rounded=0;whiteSpace=wrap;html=1;" vertex="1" parent="1">
          <mxGeometry x="293" y="390" width="120" height="60" as="geometry"/>
        </mxCell>
        <mxCell id="tU0FHJasCiWXNEm8c2Oq-3" value="Task Scheduler" style="rounded=0;whiteSpace=wrap;html=1;" vertex="1" parent="1">
          <mxGeometry x="120" y="490" width="120" height="60" as="geometry"/>
        </mxCell>
        <mxCell id="tU0FHJasCiWXNEm8c2Oq-4" value="Task Controller" style="rounded=0;whiteSpace=wrap;html=1;" vertex="1" parent="1">
          <mxGeometry x="293" y="490" width="120" height="60" as="geometry"/>
        </mxCell>
        <mxCell id="tU0FHJasCiWXNEm8c2Oq-5" value="Worker Meta/Status" style="rounded=0;whiteSpace=wrap;html=1;" vertex="1" parent="1">
          <mxGeometry x="184" y="590" width="166" height="50" as="geometry"/>
        </mxCell>
        <mxCell id="tU0FHJasCiWXNEm8c2Oq-6" value="" style="rounded=0;whiteSpace=wrap;html=1;" vertex="1" parent="1">
          <mxGeometry x="120" y="670" width="293" height="60" as="geometry"/>
        </mxCell>
        <mxCell id="tU0FHJasCiWXNEm8c2Oq-7" value="1" style="ellipse;whiteSpace=wrap;html=1;aspect=fixed;" vertex="1" parent="1">
          <mxGeometry x="140" y="674" width="20" height="20" as="geometry"/>
        </mxCell>
        <mxCell id="tU0FHJasCiWXNEm8c2Oq-8" value="3" style="ellipse;whiteSpace=wrap;html=1;aspect=fixed;" vertex="1" parent="1">
          <mxGeometry x="225" y="674" width="20" height="20" as="geometry"/>
        </mxCell>
        <mxCell id="tU0FHJasCiWXNEm8c2Oq-9" value="5" style="ellipse;whiteSpace=wrap;html=1;aspect=fixed;" vertex="1" parent="1">
          <mxGeometry x="302.5" y="674" width="20" height="20" as="geometry"/>
        </mxCell>
        <mxCell id="tU0FHJasCiWXNEm8c2Oq-10" value="7" style="ellipse;whiteSpace=wrap;html=1;aspect=fixed;" vertex="1" parent="1">
          <mxGeometry x="380" y="674" width="20" height="20" as="geometry"/>
        </mxCell>
        <mxCell id="tU0FHJasCiWXNEm8c2Oq-11" value="2" style="ellipse;whiteSpace=wrap;html=1;aspect=fixed;" vertex="1" parent="1">
          <mxGeometry x="140" y="706" width="20" height="20" as="geometry"/>
        </mxCell>
        <mxCell id="tU0FHJasCiWXNEm8c2Oq-12" value="4" style="ellipse;whiteSpace=wrap;html=1;aspect=fixed;" vertex="1" parent="1">
          <mxGeometry x="225" y="706" width="20" height="20" as="geometry"/>
        </mxCell>
        <mxCell id="tU0FHJasCiWXNEm8c2Oq-13" value="6" style="ellipse;whiteSpace=wrap;html=1;aspect=fixed;" vertex="1" parent="1">
          <mxGeometry x="302.5" y="706" width="20" height="20" as="geometry"/>
        </mxCell>
        <mxCell id="tU0FHJasCiWXNEm8c2Oq-14" value="8" style="ellipse;whiteSpace=wrap;html=1;aspect=fixed;" vertex="1" parent="1">
          <mxGeometry x="380" y="706" width="20" height="20" as="geometry"/>
        </mxCell>
        <mxCell id="tU0FHJasCiWXNEm8c2Oq-16" value="Worker Cluster" style="text;html=1;strokeColor=none;fillColor=none;align=center;verticalAlign=middle;whiteSpace=wrap;rounded=0;" vertex="1" parent="1">
          <mxGeometry x="225" y="730" width="90" height="20" as="geometry"/>
        </mxCell>
        <mxCell id="tU0FHJasCiWXNEm8c2Oq-17" value="" style="endArrow=classic;startArrow=classic;html=1;entryX=0.5;entryY=1;entryDx=0;entryDy=0;exitX=0.5;exitY=0;exitDx=0;exitDy=0;" edge="1" parent="1" source="tU0FHJasCiWXNEm8c2Oq-6" target="tU0FHJasCiWXNEm8c2Oq-5">
          <mxGeometry width="50" height="50" relative="1" as="geometry">
            <mxPoint x="120" y="820" as="sourcePoint"/>
            <mxPoint x="170" y="770" as="targetPoint"/>
          </mxGeometry>
        </mxCell>
        <mxCell id="tU0FHJasCiWXNEm8c2Oq-18" value="" style="endArrow=classic;startArrow=classic;html=1;entryX=0.5;entryY=1;entryDx=0;entryDy=0;exitX=0.5;exitY=0;exitDx=0;exitDy=0;" edge="1" parent="1" source="tU0FHJasCiWXNEm8c2Oq-5" target="tU0FHJasCiWXNEm8c2Oq-3">
          <mxGeometry width="50" height="50" relative="1" as="geometry">
            <mxPoint y="630" as="sourcePoint"/>
            <mxPoint x="50" y="580" as="targetPoint"/>
          </mxGeometry>
        </mxCell>
        <mxCell id="tU0FHJasCiWXNEm8c2Oq-19" value="" style="endArrow=classic;startArrow=classic;html=1;entryX=0.558;entryY=1.017;entryDx=0;entryDy=0;exitX=0.5;exitY=0;exitDx=0;exitDy=0;entryPerimeter=0;" edge="1" parent="1" source="tU0FHJasCiWXNEm8c2Oq-5" target="tU0FHJasCiWXNEm8c2Oq-4">
          <mxGeometry width="50" height="50" relative="1" as="geometry">
            <mxPoint x="277" y="590" as="sourcePoint"/>
            <mxPoint x="190" y="560" as="targetPoint"/>
          </mxGeometry>
        </mxCell>
        <mxCell id="tU0FHJasCiWXNEm8c2Oq-23" value="" style="endArrow=classic;startArrow=classic;html=1;entryX=0;entryY=0.5;entryDx=0;entryDy=0;exitX=1;exitY=0.5;exitDx=0;exitDy=0;" edge="1" parent="1" source="tU0FHJasCiWXNEm8c2Oq-3" target="tU0FHJasCiWXNEm8c2Oq-4">
          <mxGeometry width="50" height="50" relative="1" as="geometry">
            <mxPoint x="40" y="640" as="sourcePoint"/>
            <mxPoint x="90" y="590" as="targetPoint"/>
          </mxGeometry>
        </mxCell>
        <mxCell id="tU0FHJasCiWXNEm8c2Oq-44" style="edgeStyle=orthogonalEdgeStyle;rounded=0;orthogonalLoop=1;jettySize=auto;html=1;exitX=0;exitY=0.5;exitDx=0;exitDy=0;entryX=1;entryY=0.5;entryDx=0;entryDy=0;startArrow=none;startFill=0;endArrow=classic;endFill=1;strokeColor=#000000;dashed=1;" edge="1" parent="1" source="tU0FHJasCiWXNEm8c2Oq-25" target="tU0FHJasCiWXNEm8c2Oq-34">
          <mxGeometry relative="1" as="geometry">
            <Array as="points">
              <mxPoint x="460" y="520"/>
              <mxPoint x="460" y="566"/>
            </Array>
          </mxGeometry>
        </mxCell>
        <mxCell id="tU0FHJasCiWXNEm8c2Oq-45" style="edgeStyle=orthogonalEdgeStyle;rounded=0;orthogonalLoop=1;jettySize=auto;html=1;exitX=0;exitY=0.5;exitDx=0;exitDy=0;entryX=0;entryY=0.5;entryDx=0;entryDy=0;startArrow=none;startFill=0;endArrow=classic;endFill=1;strokeColor=#000000;dashed=1;" edge="1" parent="1" source="tU0FHJasCiWXNEm8c2Oq-25" target="tU0FHJasCiWXNEm8c2Oq-7">
          <mxGeometry relative="1" as="geometry">
            <Array as="points">
              <mxPoint x="460" y="520"/>
              <mxPoint x="460" y="760"/>
              <mxPoint x="100" y="760"/>
              <mxPoint x="100" y="684"/>
            </Array>
          </mxGeometry>
        </mxCell>
        <mxCell id="tU0FHJasCiWXNEm8c2Oq-25" value="Proxy" style="rounded=0;whiteSpace=wrap;html=1;" vertex="1" parent="1">
          <mxGeometry x="480" y="462.5" width="50" height="115" as="geometry"/>
        </mxCell>
        <mxCell id="tU0FHJasCiWXNEm8c2Oq-26" value="" style="endArrow=classic;html=1;entryX=1;entryY=0.5;entryDx=0;entryDy=0;" edge="1" parent="1" target="tU0FHJasCiWXNEm8c2Oq-25">
          <mxGeometry width="50" height="50" relative="1" as="geometry">
            <mxPoint x="610" y="520" as="sourcePoint"/>
            <mxPoint x="160" y="760" as="targetPoint"/>
          </mxGeometry>
        </mxCell>
        <mxCell id="tU0FHJasCiWXNEm8c2Oq-27" value="" style="endArrow=classic;html=1;entryX=1;entryY=0.5;entryDx=0;entryDy=0;exitX=0;exitY=0.5;exitDx=0;exitDy=0;" edge="1" parent="1" source="tU0FHJasCiWXNEm8c2Oq-25" target="tU0FHJasCiWXNEm8c2Oq-4">
          <mxGeometry width="50" height="50" relative="1" as="geometry">
            <mxPoint x="120" y="810" as="sourcePoint"/>
            <mxPoint x="170" y="760" as="targetPoint"/>
          </mxGeometry>
        </mxCell>
        <mxCell id="tU0FHJasCiWXNEm8c2Oq-32" style="edgeStyle=orthogonalEdgeStyle;rounded=0;orthogonalLoop=1;jettySize=auto;html=1;exitX=0;exitY=0.5;exitDx=0;exitDy=0;entryX=0.5;entryY=0;entryDx=0;entryDy=0;strokeColor=#000000;" edge="1" parent="1" source="tU0FHJasCiWXNEm8c2Oq-29" target="tU0FHJasCiWXNEm8c2Oq-1">
          <mxGeometry relative="1" as="geometry"/>
        </mxCell>
        <mxCell id="tU0FHJasCiWXNEm8c2Oq-29" value="Coordinator" style="whiteSpace=wrap;html=1;aspect=fixed;" vertex="1" parent="1">
          <mxGeometry x="230.5" y="290" width="70" height="70" as="geometry"/>
        </mxCell>
        <mxCell id="tU0FHJasCiWXNEm8c2Oq-42" value="" style="group" vertex="1" connectable="0" parent="1">
          <mxGeometry x="360" y="560" width="40" height="30" as="geometry"/>
        </mxCell>
        <mxCell id="tU0FHJasCiWXNEm8c2Oq-34" value="1" style="ellipse;whiteSpace=wrap;html=1;aspect=fixed;" vertex="1" parent="tU0FHJasCiWXNEm8c2Oq-42">
          <mxGeometry x="13.333333333333332" width="11.594202898550723" height="11.594202898550723" as="geometry"/>
        </mxCell>
        <mxCell id="tU0FHJasCiWXNEm8c2Oq-35" value="2" style="ellipse;whiteSpace=wrap;html=1;aspect=fixed;" vertex="1" parent="tU0FHJasCiWXNEm8c2Oq-42">
          <mxGeometry y="16.956521739130434" width="11.594202898550723" height="11.594202898550723" as="geometry"/>
        </mxCell>
        <mxCell id="tU0FHJasCiWXNEm8c2Oq-36" value="3" style="ellipse;whiteSpace=wrap;html=1;aspect=fixed;" vertex="1" parent="tU0FHJasCiWXNEm8c2Oq-42">
          <mxGeometry x="26.666666666666664" y="16.956521739130434" width="11.594202898550723" height="11.594202898550723" as="geometry"/>
        </mxCell>
        <mxCell id="tU0FHJasCiWXNEm8c2Oq-40" value="" style="endArrow=none;startArrow=none;html=1;strokeColor=#000000;entryX=0.5;entryY=1;entryDx=0;entryDy=0;exitX=0.5;exitY=0;exitDx=0;exitDy=0;startFill=0;endFill=0;" edge="1" parent="tU0FHJasCiWXNEm8c2Oq-42" source="tU0FHJasCiWXNEm8c2Oq-35" target="tU0FHJasCiWXNEm8c2Oq-34">
          <mxGeometry width="50" height="50" relative="1" as="geometry">
            <mxPoint x="-26.666666666666664" y="39.130434782608695" as="sourcePoint"/>
            <mxPoint x="6.666666666666666" y="6.521739130434782" as="targetPoint"/>
          </mxGeometry>
        </mxCell>
        <mxCell id="tU0FHJasCiWXNEm8c2Oq-41" value="" style="endArrow=none;startArrow=none;html=1;strokeColor=#000000;entryX=0.5;entryY=1;entryDx=0;entryDy=0;exitX=0.5;exitY=0;exitDx=0;exitDy=0;startFill=0;endFill=0;" edge="1" parent="tU0FHJasCiWXNEm8c2Oq-42" source="tU0FHJasCiWXNEm8c2Oq-36" target="tU0FHJasCiWXNEm8c2Oq-34">
          <mxGeometry width="50" height="50" relative="1" as="geometry">
            <mxPoint x="13.333333333333332" y="23.47826086956522" as="sourcePoint"/>
            <mxPoint x="26.666666666666664" y="19.565217391304348" as="targetPoint"/>
          </mxGeometry>
        </mxCell>
      </root>
    </mxGraphModel>
  </diagram>
  <diagram id="a7hSRBRimNe9JSwszoeZ" name="第 2 页">
    <mxGraphModel dx="1188" dy="644" grid="1" gridSize="10" guides="1" tooltips="1" connect="1" arrows="1" fold="1" page="1" pageScale="1" pageWidth="827" pageHeight="1169" math="0" shadow="0">
      <root>
        <mxCell id="GxQlS0H3ZpaQIey6vHYZ-0"/>
        <mxCell id="GxQlS0H3ZpaQIey6vHYZ-1" parent="GxQlS0H3ZpaQIey6vHYZ-0"/>
        <mxCell id="MJ8SA4pkK3j9jqzAcS0U-2" value="" style="rounded=0;whiteSpace=wrap;html=1;" vertex="1" parent="GxQlS0H3ZpaQIey6vHYZ-1">
          <mxGeometry x="390" y="390" width="140" height="140" as="geometry"/>
        </mxCell>
        <mxCell id="MJ8SA4pkK3j9jqzAcS0U-1" value="" style="rounded=0;whiteSpace=wrap;html=1;" vertex="1" parent="GxQlS0H3ZpaQIey6vHYZ-1">
          <mxGeometry x="190" y="390" width="140" height="140" as="geometry"/>
        </mxCell>
        <mxCell id="GxQlS0H3ZpaQIey6vHYZ-14" value="1" style="ellipse;whiteSpace=wrap;html=1;aspect=fixed;" vertex="1" parent="GxQlS0H3ZpaQIey6vHYZ-1">
          <mxGeometry x="280" y="440" width="40" height="40" as="geometry"/>
        </mxCell>
        <mxCell id="GxQlS0H3ZpaQIey6vHYZ-17" style="edgeStyle=none;rounded=0;orthogonalLoop=1;jettySize=auto;html=1;exitX=1;exitY=0.5;exitDx=0;exitDy=0;entryX=0;entryY=0.5;entryDx=0;entryDy=0;startArrow=none;startFill=0;endArrow=none;endFill=0;strokeColor=#000000;" edge="1" parent="GxQlS0H3ZpaQIey6vHYZ-1" source="GxQlS0H3ZpaQIey6vHYZ-15" target="GxQlS0H3ZpaQIey6vHYZ-14">
          <mxGeometry relative="1" as="geometry"/>
        </mxCell>
        <mxCell id="GxQlS0H3ZpaQIey6vHYZ-15" value="2" style="ellipse;whiteSpace=wrap;html=1;aspect=fixed;" vertex="1" parent="GxQlS0H3ZpaQIey6vHYZ-1">
          <mxGeometry x="200" y="400" width="40" height="40" as="geometry"/>
        </mxCell>
        <mxCell id="GxQlS0H3ZpaQIey6vHYZ-18" style="edgeStyle=none;rounded=0;orthogonalLoop=1;jettySize=auto;html=1;exitX=1;exitY=0.5;exitDx=0;exitDy=0;entryX=0;entryY=0.5;entryDx=0;entryDy=0;startArrow=none;startFill=0;endArrow=none;endFill=0;strokeColor=#000000;" edge="1" parent="GxQlS0H3ZpaQIey6vHYZ-1" source="GxQlS0H3ZpaQIey6vHYZ-16" target="GxQlS0H3ZpaQIey6vHYZ-14">
          <mxGeometry relative="1" as="geometry"/>
        </mxCell>
        <mxCell id="GxQlS0H3ZpaQIey6vHYZ-16" value="3" style="ellipse;whiteSpace=wrap;html=1;aspect=fixed;" vertex="1" parent="GxQlS0H3ZpaQIey6vHYZ-1">
          <mxGeometry x="200" y="480" width="40" height="40" as="geometry"/>
        </mxCell>
        <mxCell id="GxQlS0H3ZpaQIey6vHYZ-19" value="1" style="ellipse;whiteSpace=wrap;html=1;aspect=fixed;" vertex="1" parent="GxQlS0H3ZpaQIey6vHYZ-1">
          <mxGeometry x="400" y="440" width="40" height="40" as="geometry"/>
        </mxCell>
        <mxCell id="GxQlS0H3ZpaQIey6vHYZ-20" style="edgeStyle=none;rounded=0;orthogonalLoop=1;jettySize=auto;html=1;exitX=1;exitY=0.5;exitDx=0;exitDy=0;entryX=1;entryY=0.5;entryDx=0;entryDy=0;startArrow=none;startFill=0;endArrow=none;endFill=0;strokeColor=#000000;" edge="1" parent="GxQlS0H3ZpaQIey6vHYZ-1" source="GxQlS0H3ZpaQIey6vHYZ-21" target="GxQlS0H3ZpaQIey6vHYZ-19">
          <mxGeometry relative="1" as="geometry"/>
        </mxCell>
        <mxCell id="GxQlS0H3ZpaQIey6vHYZ-21" value="2" style="ellipse;whiteSpace=wrap;html=1;aspect=fixed;" vertex="1" parent="GxQlS0H3ZpaQIey6vHYZ-1">
          <mxGeometry x="480" y="400" width="40" height="40" as="geometry"/>
        </mxCell>
        <mxCell id="GxQlS0H3ZpaQIey6vHYZ-22" style="edgeStyle=none;rounded=0;orthogonalLoop=1;jettySize=auto;html=1;exitX=1;exitY=0.5;exitDx=0;exitDy=0;entryX=1;entryY=0.5;entryDx=0;entryDy=0;startArrow=none;startFill=0;endArrow=none;endFill=0;strokeColor=#000000;" edge="1" parent="GxQlS0H3ZpaQIey6vHYZ-1" source="GxQlS0H3ZpaQIey6vHYZ-23" target="GxQlS0H3ZpaQIey6vHYZ-19">
          <mxGeometry relative="1" as="geometry"/>
        </mxCell>
        <mxCell id="GxQlS0H3ZpaQIey6vHYZ-23" value="3" style="ellipse;whiteSpace=wrap;html=1;aspect=fixed;" vertex="1" parent="GxQlS0H3ZpaQIey6vHYZ-1">
          <mxGeometry x="480" y="480" width="40" height="40" as="geometry"/>
        </mxCell>
        <mxCell id="GxQlS0H3ZpaQIey6vHYZ-24" value="" style="endArrow=none;html=1;strokeColor=#000000;entryX=0;entryY=0.5;entryDx=0;entryDy=0;exitX=1;exitY=0.5;exitDx=0;exitDy=0;" edge="1" parent="GxQlS0H3ZpaQIey6vHYZ-1" source="GxQlS0H3ZpaQIey6vHYZ-14" target="GxQlS0H3ZpaQIey6vHYZ-19">
          <mxGeometry width="50" height="50" relative="1" as="geometry">
            <mxPoint x="160" y="590" as="sourcePoint"/>
            <mxPoint x="210" y="540" as="targetPoint"/>
          </mxGeometry>
        </mxCell>
        <mxCell id="MJ8SA4pkK3j9jqzAcS0U-0" value="Task A" style="text;html=1;strokeColor=none;fillColor=none;align=center;verticalAlign=middle;whiteSpace=wrap;rounded=0;" vertex="1" parent="GxQlS0H3ZpaQIey6vHYZ-1">
          <mxGeometry x="340" y="500" width="40" height="20" as="geometry"/>
        </mxCell>
      </root>
    </mxGraphModel>
  </diagram>
  <diagram id="dy4zeFZDMmhHF-7LCMwF" name="第 3 页">
    <mxGraphModel dx="815" dy="442" grid="1" gridSize="10" guides="1" tooltips="1" connect="1" arrows="1" fold="1" page="1" pageScale="1" pageWidth="827" pageHeight="1169" math="0" shadow="0">
      <root>
        <mxCell id="6PJsALYMue5G5ZhorYaZ-0"/>
        <mxCell id="6PJsALYMue5G5ZhorYaZ-1" parent="6PJsALYMue5G5ZhorYaZ-0"/>
        <mxCell id="6PJsALYMue5G5ZhorYaZ-2" value="" style="rounded=0;whiteSpace=wrap;html=1;" vertex="1" parent="6PJsALYMue5G5ZhorYaZ-1">
          <mxGeometry x="160" y="600" width="293" height="60" as="geometry"/>
        </mxCell>
        <mxCell id="6PJsALYMue5G5ZhorYaZ-3" value="1" style="ellipse;whiteSpace=wrap;html=1;aspect=fixed;" vertex="1" parent="6PJsALYMue5G5ZhorYaZ-1">
          <mxGeometry x="180" y="604" width="20" height="20" as="geometry"/>
        </mxCell>
        <mxCell id="6PJsALYMue5G5ZhorYaZ-4" value="3" style="ellipse;whiteSpace=wrap;html=1;aspect=fixed;" vertex="1" parent="6PJsALYMue5G5ZhorYaZ-1">
          <mxGeometry x="265" y="604" width="20" height="20" as="geometry"/>
        </mxCell>
        <mxCell id="6PJsALYMue5G5ZhorYaZ-5" value="5" style="ellipse;whiteSpace=wrap;html=1;aspect=fixed;" vertex="1" parent="6PJsALYMue5G5ZhorYaZ-1">
          <mxGeometry x="342.5" y="604" width="20" height="20" as="geometry"/>
        </mxCell>
        <mxCell id="6PJsALYMue5G5ZhorYaZ-6" value="7" style="ellipse;whiteSpace=wrap;html=1;aspect=fixed;" vertex="1" parent="6PJsALYMue5G5ZhorYaZ-1">
          <mxGeometry x="420" y="604" width="20" height="20" as="geometry"/>
        </mxCell>
        <mxCell id="6PJsALYMue5G5ZhorYaZ-7" value="2" style="ellipse;whiteSpace=wrap;html=1;aspect=fixed;" vertex="1" parent="6PJsALYMue5G5ZhorYaZ-1">
          <mxGeometry x="180" y="636" width="20" height="20" as="geometry"/>
        </mxCell>
        <mxCell id="6PJsALYMue5G5ZhorYaZ-8" value="4" style="ellipse;whiteSpace=wrap;html=1;aspect=fixed;" vertex="1" parent="6PJsALYMue5G5ZhorYaZ-1">
          <mxGeometry x="265" y="636" width="20" height="20" as="geometry"/>
        </mxCell>
        <mxCell id="6PJsALYMue5G5ZhorYaZ-9" value="6" style="ellipse;whiteSpace=wrap;html=1;aspect=fixed;" vertex="1" parent="6PJsALYMue5G5ZhorYaZ-1">
          <mxGeometry x="342.5" y="636" width="20" height="20" as="geometry"/>
        </mxCell>
        <mxCell id="6PJsALYMue5G5ZhorYaZ-10" value="8" style="ellipse;whiteSpace=wrap;html=1;aspect=fixed;" vertex="1" parent="6PJsALYMue5G5ZhorYaZ-1">
          <mxGeometry x="420" y="636" width="20" height="20" as="geometry"/>
        </mxCell>
        <mxCell id="6PJsALYMue5G5ZhorYaZ-11" value="Worker Cluster" style="text;html=1;strokeColor=none;fillColor=none;align=center;verticalAlign=middle;whiteSpace=wrap;rounded=0;" vertex="1" parent="6PJsALYMue5G5ZhorYaZ-1">
          <mxGeometry x="265" y="660" width="90" height="20" as="geometry"/>
        </mxCell>
        <mxCell id="drkY83Xiws9WBJaPVoTN-11" value="1" style="ellipse;whiteSpace=wrap;html=1;aspect=fixed;" vertex="1" parent="6PJsALYMue5G5ZhorYaZ-1">
          <mxGeometry x="190" y="500" width="20" height="20" as="geometry"/>
        </mxCell>
        <mxCell id="drkY83Xiws9WBJaPVoTN-27" style="edgeStyle=none;rounded=0;orthogonalLoop=1;jettySize=auto;html=1;exitX=0.5;exitY=0;exitDx=0;exitDy=0;entryX=0.5;entryY=1;entryDx=0;entryDy=0;startArrow=none;startFill=0;endArrow=none;endFill=0;strokeColor=#000000;" edge="1" parent="6PJsALYMue5G5ZhorYaZ-1" source="drkY83Xiws9WBJaPVoTN-12" target="drkY83Xiws9WBJaPVoTN-11">
          <mxGeometry relative="1" as="geometry"/>
        </mxCell>
        <mxCell id="drkY83Xiws9WBJaPVoTN-12" value="2" style="ellipse;whiteSpace=wrap;html=1;aspect=fixed;" vertex="1" parent="6PJsALYMue5G5ZhorYaZ-1">
          <mxGeometry x="170" y="530" width="20" height="20" as="geometry"/>
        </mxCell>
        <mxCell id="drkY83Xiws9WBJaPVoTN-28" style="edgeStyle=none;rounded=0;orthogonalLoop=1;jettySize=auto;html=1;exitX=0.5;exitY=0;exitDx=0;exitDy=0;entryX=0.5;entryY=1;entryDx=0;entryDy=0;startArrow=none;startFill=0;endArrow=none;endFill=0;strokeColor=#000000;" edge="1" parent="6PJsALYMue5G5ZhorYaZ-1" source="drkY83Xiws9WBJaPVoTN-13" target="drkY83Xiws9WBJaPVoTN-11">
          <mxGeometry relative="1" as="geometry"/>
        </mxCell>
        <mxCell id="drkY83Xiws9WBJaPVoTN-13" value="3" style="ellipse;whiteSpace=wrap;html=1;aspect=fixed;" vertex="1" parent="6PJsALYMue5G5ZhorYaZ-1">
          <mxGeometry x="210" y="530" width="20" height="20" as="geometry"/>
        </mxCell>
        <mxCell id="drkY83Xiws9WBJaPVoTN-17" value="4" style="ellipse;whiteSpace=wrap;html=1;aspect=fixed;" vertex="1" parent="6PJsALYMue5G5ZhorYaZ-1">
          <mxGeometry x="301" y="500" width="20" height="20" as="geometry"/>
        </mxCell>
        <mxCell id="drkY83Xiws9WBJaPVoTN-30" style="edgeStyle=none;rounded=0;orthogonalLoop=1;jettySize=auto;html=1;exitX=0.5;exitY=0;exitDx=0;exitDy=0;entryX=0.5;entryY=1;entryDx=0;entryDy=0;startArrow=none;startFill=0;endArrow=none;endFill=0;strokeColor=#000000;" edge="1" parent="6PJsALYMue5G5ZhorYaZ-1" source="drkY83Xiws9WBJaPVoTN-18" target="drkY83Xiws9WBJaPVoTN-17">
          <mxGeometry relative="1" as="geometry"/>
        </mxCell>
        <mxCell id="drkY83Xiws9WBJaPVoTN-18" value="5" style="ellipse;whiteSpace=wrap;html=1;aspect=fixed;" vertex="1" parent="6PJsALYMue5G5ZhorYaZ-1">
          <mxGeometry x="272.5" y="530" width="20" height="20" as="geometry"/>
        </mxCell>
        <mxCell id="drkY83Xiws9WBJaPVoTN-32" style="edgeStyle=none;rounded=0;orthogonalLoop=1;jettySize=auto;html=1;exitX=0.5;exitY=0;exitDx=0;exitDy=0;entryX=0.5;entryY=1;entryDx=0;entryDy=0;startArrow=none;startFill=0;endArrow=none;endFill=0;strokeColor=#000000;" edge="1" parent="6PJsALYMue5G5ZhorYaZ-1" source="drkY83Xiws9WBJaPVoTN-19" target="drkY83Xiws9WBJaPVoTN-17">
          <mxGeometry relative="1" as="geometry"/>
        </mxCell>
        <mxCell id="drkY83Xiws9WBJaPVoTN-19" value="6" style="ellipse;whiteSpace=wrap;html=1;aspect=fixed;" vertex="1" parent="6PJsALYMue5G5ZhorYaZ-1">
          <mxGeometry x="301" y="530" width="20" height="20" as="geometry"/>
        </mxCell>
        <mxCell id="drkY83Xiws9WBJaPVoTN-33" style="edgeStyle=none;rounded=0;orthogonalLoop=1;jettySize=auto;html=1;exitX=0.5;exitY=0;exitDx=0;exitDy=0;entryX=0.5;entryY=1;entryDx=0;entryDy=0;startArrow=none;startFill=0;endArrow=none;endFill=0;strokeColor=#000000;" edge="1" parent="6PJsALYMue5G5ZhorYaZ-1" source="drkY83Xiws9WBJaPVoTN-20" target="drkY83Xiws9WBJaPVoTN-17">
          <mxGeometry relative="1" as="geometry"/>
        </mxCell>
        <mxCell id="drkY83Xiws9WBJaPVoTN-20" value="7" style="ellipse;whiteSpace=wrap;html=1;aspect=fixed;" vertex="1" parent="6PJsALYMue5G5ZhorYaZ-1">
          <mxGeometry x="331" y="530" width="20" height="20" as="geometry"/>
        </mxCell>
        <mxCell id="drkY83Xiws9WBJaPVoTN-21" value="8" style="ellipse;whiteSpace=wrap;html=1;aspect=fixed;" vertex="1" parent="6PJsALYMue5G5ZhorYaZ-1">
          <mxGeometry x="407" y="500" width="20" height="20" as="geometry"/>
        </mxCell>
        <mxCell id="drkY83Xiws9WBJaPVoTN-34" style="edgeStyle=none;rounded=0;orthogonalLoop=1;jettySize=auto;html=1;exitX=0.5;exitY=0;exitDx=0;exitDy=0;entryX=0.5;entryY=1;entryDx=0;entryDy=0;startArrow=none;startFill=0;endArrow=none;endFill=0;strokeColor=#000000;" edge="1" parent="6PJsALYMue5G5ZhorYaZ-1" source="drkY83Xiws9WBJaPVoTN-22" target="drkY83Xiws9WBJaPVoTN-21">
          <mxGeometry relative="1" as="geometry"/>
        </mxCell>
        <mxCell id="drkY83Xiws9WBJaPVoTN-22" value="1" style="ellipse;whiteSpace=wrap;html=1;aspect=fixed;" vertex="1" parent="6PJsALYMue5G5ZhorYaZ-1">
          <mxGeometry x="387" y="530" width="20" height="20" as="geometry"/>
        </mxCell>
        <mxCell id="drkY83Xiws9WBJaPVoTN-35" style="edgeStyle=none;rounded=0;orthogonalLoop=1;jettySize=auto;html=1;exitX=0.5;exitY=0;exitDx=0;exitDy=0;entryX=0.5;entryY=1;entryDx=0;entryDy=0;startArrow=none;startFill=0;endArrow=none;endFill=0;strokeColor=#000000;" edge="1" parent="6PJsALYMue5G5ZhorYaZ-1" source="drkY83Xiws9WBJaPVoTN-23" target="drkY83Xiws9WBJaPVoTN-21">
          <mxGeometry relative="1" as="geometry"/>
        </mxCell>
        <mxCell id="drkY83Xiws9WBJaPVoTN-23" value="3" style="ellipse;whiteSpace=wrap;html=1;aspect=fixed;" vertex="1" parent="6PJsALYMue5G5ZhorYaZ-1">
          <mxGeometry x="427" y="530" width="20" height="20" as="geometry"/>
        </mxCell>
        <mxCell id="drkY83Xiws9WBJaPVoTN-36" value="Task A" style="text;html=1;strokeColor=none;fillColor=none;align=center;verticalAlign=middle;whiteSpace=wrap;rounded=0;" vertex="1" parent="6PJsALYMue5G5ZhorYaZ-1">
          <mxGeometry x="180" y="560" width="40" height="20" as="geometry"/>
        </mxCell>
        <mxCell id="drkY83Xiws9WBJaPVoTN-37" value="Task B" style="text;html=1;strokeColor=none;fillColor=none;align=center;verticalAlign=middle;whiteSpace=wrap;rounded=0;" vertex="1" parent="6PJsALYMue5G5ZhorYaZ-1">
          <mxGeometry x="291" y="560" width="40" height="20" as="geometry"/>
        </mxCell>
        <mxCell id="drkY83Xiws9WBJaPVoTN-38" value="Task C" style="text;html=1;strokeColor=none;fillColor=none;align=center;verticalAlign=middle;whiteSpace=wrap;rounded=0;" vertex="1" parent="6PJsALYMue5G5ZhorYaZ-1">
          <mxGeometry x="397" y="560" width="40" height="20" as="geometry"/>
        </mxCell>
      </root>
    </mxGraphModel>
  </diagram>
</mxfile>
